<svg id="Layer_1" height="512" viewBox="0 0 512 512" width="512" xmlns="http://www.w3.org/2000/svg" data-name="Layer 1"><path d="m475.17 105.7v74.85h-8.64a10.922 10.922 0 0 0 -10.44 7.71l-12.06 39.21a22.905 22.905 0 0 1 -21.91 16.18h-1.98v-137.95l20.47 4.76a30.226 30.226 0 0 0 14.88.1z" fill="#aa716f"/><path d="m143.83 105.7v137.95h-53.88v-137.95l19.33 4.76a30.185 30.185 0 0 0 14.87.1z" fill="#e87187"/><path d="m255.04 105.7v137.95h-53.88v-137.95l19.33 4.76a30.185 30.185 0 0 0 14.87.1z" fill="#5fa8ed"/><path d="m89.95 105.7v137.95h-.07a22.905 22.905 0 0 1 -21.91-16.18l-12.06-39.21a10.922 10.922 0 0 0 -10.44-7.71h-9.79v-75.23l19.71 5.14a30.186 30.186 0 0 0 14.87.1z" fill="#f3ce7d"/><path d="m201.16 105.7v137.95h-57.33v-137.95l22.77 4.76a30.186 30.186 0 0 0 14.87.1z" fill="#5fcda4"/><path d="m132.75 74.3 11.08 31.4-19.68 4.86a30.185 30.185 0 0 1 -14.87-.1l-19.33-4.76 9.67-31.4z" fill="#dda58e"/><path d="m190.07 74.3 11.09 31.4-19.69 4.86a30.186 30.186 0 0 1 -14.87-.1l-22.77-4.76 13.11-31.4z" fill="#dda58e"/><path d="m243.96 74.3 11.08 31.4-19.68 4.86a30.185 30.185 0 0 1 -14.87-.1l-19.33-4.76 9.67-31.4z" fill="#dda58e"/><path d="m308.93 105.7v137.95h-53.89v-137.95l19.33 4.76a30.225 30.225 0 0 0 14.88.1z" fill="#7b78b5"/><path d="m78.86 74.3 11.09 31.4-19.69 4.86a30.186 30.186 0 0 1 -14.87-.1l-19.71-5.14 10.05-31.02z" fill="#dda58e"/><path d="m297.84 74.3 11.09 31.4-19.68 4.86a30.225 30.225 0 0 1 -14.88-.1l-19.33-4.76 9.67-31.4z" fill="#dda58e"/><path d="m354.02 74.3 11.09 31.4-19.69 4.86a30.186 30.186 0 0 1 -14.87-.1l-21.62-4.76 11.96-31.4z" fill="#dda58e"/><path d="m365.11 105.7v137.95h-56.18v-137.95l21.62 4.76a30.186 30.186 0 0 0 14.87.1z" fill="#a5e2fb"/><path d="m464.08 74.3 11.09 31.4-19.68 4.86a30.226 30.226 0 0 1 -14.88-.1l-20.47-4.76 10.82-31.4z" fill="#dda58e"/><path d="m409.05 74.3 11.09 31.4-19.68 4.86a30.225 30.225 0 0 1 -14.88-.1l-20.47-4.76 10.81-31.4z" fill="#dda58e"/><path d="m420.14 105.7v137.95h-55.03v-137.95l20.47 4.76a30.225 30.225 0 0 0 14.88.1z" fill="#6d7486"/><path d="m114.75 23.68 18 50.62h-16.05-17.08z" fill="#e87187"/><path d="m60.86 23.68 18 50.62h-16.04-17.09z" fill="#f3ce7d"/><path d="m279.84 23.68 18 50.62h-16.04-17.09z" fill="#7b78b5"/><path d="m336.02 23.68 18 50.62h-16.05-17.08z" fill="#a5e2fb"/><path d="m225.96 23.68 18 50.62h-16.05-17.08z" fill="#5fa8ed"/><path d="m172.07 23.68 18 50.62h-16.04-17.09z" fill="#5fcda4"/><path d="m391.05 23.68 18 50.62h-16.04-17.09z" fill="#6d7486"/><path d="m446.09 23.68 17.99 50.62h-16.04-17.08z" fill="#aa716f"/><path d="m479.69 178.55h-13.16a10.922 10.922 0 0 0 -10.44 7.71l-12.06 39.21a22.905 22.905 0 0 1 -21.91 16.18h-332.24a22.905 22.905 0 0 1 -21.91-16.18l-12.06-39.21a10.922 10.922 0 0 0 -10.44-7.71h-13.16a16.305 16.305 0 0 0 -16.31 16.3v270.55a22.926 22.926 0 0 0 22.93 22.92h434.14a22.926 22.926 0 0 0 22.93-22.92v-270.55a16.305 16.305 0 0 0 -16.31-16.3z" fill="#4689d3"/><path d="m426.27 279.01h-337.18a16.719 16.719 0 0 0 -16.72 16.72v140.73a16.725 16.725 0 0 0 16.72 16.72h337.18a16.728 16.728 0 0 0 16.73-16.72v-140.73a16.721 16.721 0 0 0 -16.73-16.72z" fill="#adf0e5"/><path d="m318.99 453.18h-229.9a16.725 16.725 0 0 1 -16.72-16.72v-4.9s69.46-55.19 133.46-38.94a253.708 253.708 0 0 1 51.74 19.78c36.92 18.71 61.42 40.78 61.42 40.78z" fill="#5fcda4"/><path d="m443 412.23v24.23a16.728 16.728 0 0 1 -16.73 16.72h-107.28s-24.5-22.07-61.42-40.78c0 0 72.4-74.93 185.43-.17z" fill="#4ca987"/><path d="m247.82 311.3a27.4 27.4 0 1 1 -27.39 27.4 27.4 27.4 0 0 1 27.39-27.4z" fill="#f3ce7d"/><path d="m46 465.4v-270.55a16.268 16.268 0 0 1 6.944-13.332 10.906 10.906 0 0 0 -7.474-2.968h-13.16a16.305 16.305 0 0 0 -16.31 16.3v270.55a22.926 22.926 0 0 0 22.93 22.92h30a22.926 22.926 0 0 1 -22.93-22.92z" fill="#356c9e"/><g fill="#284268"><path d="m281.216 338.7a33.394 33.394 0 1 0 -33.394 33.394 33.431 33.431 0 0 0 33.394-33.394zm-54.788 0a21.394 21.394 0 1 1 21.394 21.394 21.418 21.418 0 0 1 -21.394-21.394z"/><path d="m121.212 316.767a6 6 0 1 0 1.2 11.939c3.041-.308 10.431-.058 13.867 2.674a7.157 7.157 0 0 0 11.623-5.846c-.186-5 3.12-11.056 4.41-12.97a6 6 0 0 0 -9.919-6.753 42.474 42.474 0 0 0 -5.608 12.542 41.362 41.362 0 0 0 -15.573-1.586z"/><path d="m197.516 319.651a6 6 0 0 0 -8.251 1.98 42.552 42.552 0 0 0 -4.983 12.8 41.435 41.435 0 0 0 -15.636-.817 6 6 0 1 0 1.791 11.865c3.021-.454 10.415-.569 13.98 1.988a7.157 7.157 0 0 0 11.322-6.41c-.431-4.983 2.573-11.2 3.766-13.172a6 6 0 0 0 -1.989-8.234z"/><path d="m39.973 385.906a6 6 0 0 0 -6 6v13.855a6 6 0 0 0 12 0v-13.855a6 6 0 0 0 -6-6z"/><path d="m39.973 283.8a6 6 0 0 0 -6 6v78.776a6 6 0 0 0 12 0v-78.776a6 6 0 0 0 -6-6z"/><path d="m426.275 273.007h-255.389a6 6 0 0 0 0 12h255.388a10.722 10.722 0 0 1 10.726 10.722v105.618c-23.417-14.109-46.835-23.039-69.746-26.562a140.383 140.383 0 0 0 -61.032 3.733 133.12 133.12 0 0 0 -49.666 26.628 257.493 257.493 0 0 0 -49.242-18.339c-27.52-6.988-60.279-2.237-94.734 13.746a251.705 251.705 0 0 0 -34.21 19.313v-124.138a10.72 10.72 0 0 1 10.72-10.721h29.8a6 6 0 1 0 0-12h-29.799a22.72 22.72 0 0 0 -22.721 22.721v140.73a22.721 22.721 0 0 0 22.721 22.722h337.183a22.722 22.722 0 0 0 22.726-22.722v-140.73a22.721 22.721 0 0 0 -22.725-22.721zm-337.184 174.173a10.733 10.733 0 0 1 -10.721-10.722v-1.905c12.236-8.975 71.9-49.846 125.986-36.115 42.762 10.86 79.12 34.865 97.594 48.742zm347.909-10.722a10.734 10.734 0 0 1 -10.722 10.722h-105.03a316.525 316.525 0 0 0 -53.077-36.049 124.372 124.372 0 0 1 41.979-21.259c40.03-11.451 82.692-2.822 126.846 25.617z"/><path d="m481.172 172.606v-66.906l-29.433-84.03a6 6 0 0 0 -11.4.292l-20.269 65.519-23.363-65.811a6 6 0 0 0 -11.4.292l-20.269 65.519-23.363-65.811a6 6 0 0 0 -11.4.292l-21.13 66.324-23.645-66.616a6 6 0 0 0 -11.4.292l-19.44 64.615-23.049-64.907a6 6 0 0 0 -11.4.292l-19.44 64.615-23.045-64.907a6 6 0 0 0 -11.4.292l-22.026 67.043-23.9-67.335a6 6 0 0 0 -11.4.292l-19.44 64.615-23.044-64.907a6 6 0 0 0 -11.4.292l-25.434 83.358v67.391a22.334 22.334 0 0 0 -19.682 22.142v270.547a28.956 28.956 0 0 0 28.93 28.92h434.14a28.956 28.956 0 0 0 28.93-28.92v-270.547a22.33 22.33 0 0 0 -20.828-22.247zm-34.593-129.627 9 25.32h-16.568zm-11.344 37.321h24.6l7.473 21.162-13.263 3.274a24.292 24.292 0 0 1 -11.92-.078l-.155-.039-13.994-3.254zm-9.1 32.957 13.041 3.033a36.357 36.357 0 0 0 17.744.1l12.247-3.023v59.189h-2.644a16.831 16.831 0 0 0 -16.169 11.94l-12.054 39.209a16.827 16.827 0 0 1 -12.16 11.47zm-34.588-70.278 9 25.32h-16.568zm-11.347 37.321h24.6l7.473 21.162-13.262 3.274a24.3 24.3 0 0 1 -11.921-.078c-.052-.014-.1-.027-.155-.039l-13.994-3.254zm-9.095 32.957 13.041 3.033a36.313 36.313 0 0 0 17.745.1l12.246-3.023v122.286h-43.029zm-34.589-70.278 9 25.32h-16.57zm-11.489 37.321h24.748l7.473 21.162-13.263 3.274a24.292 24.292 0 0 1 -11.92-.078c-.074-.02-.149-.038-.224-.054l-14.829-3.266zm-10.1 32.867 14.222 3.132a36.348 36.348 0 0 0 17.709.087l12.247-3.023v122.29h-44.175zm-34.59-70.188 9 25.32h-16.568zm-11.193 37.321h24.456l7.472 21.162-13.262 3.274a24.383 24.383 0 0 1 -12-.1l-13.162-3.236zm-8.1 33.059 11.813 2.91a36.328 36.328 0 0 0 17.826.117l12.247-3.023v122.29h-41.886zm-34.592-70.38 9 25.32h-16.57zm-11.193 37.321h24.452l7.473 21.162-13.263 3.274a24.391 24.391 0 0 1 -12-.1l-13.158-3.236zm-8.1 33.059 11.813 2.91a36.34 36.34 0 0 0 17.826.117l12.246-3.023v122.29h-41.885zm-34.593-70.38 9 25.32h-16.566zm-11.626 37.321h24.886l7.473 21.162-13.262 3.274a24.3 24.3 0 0 1 -11.921-.078c-.1-.025-.19-.048-.286-.068l-15.662-3.275zm-11.106 32.786 15.4 3.222a36.351 36.351 0 0 0 17.677.078l12.246-3.023v122.29h-45.323zm-34.592-70.107 9 25.32h-16.57zm-11.193 37.321h24.451l7.473 21.162-13.263 3.274a24.379 24.379 0 0 1 -12-.1l-13.157-3.236zm-8.1 33.059 11.813 2.91a36.324 36.324 0 0 0 17.825.117l12.247-3.023v122.29h-41.885zm-34.593-70.38 9 25.32h-16.568zm-11.256 37.321h24.52l7.473 21.162-13.263 3.274a24.28 24.28 0 0 1 -11.92-.078l-13.56-3.538zm-8.414 32.787 12.194 3.182a36.328 36.328 0 0 0 17.826.117l12.247-3.023v121.218a16.824 16.824 0 0 1 -10.253-10.876l-12.059-39.214a16.831 16.831 0 0 0 -16.169-11.94h-3.79zm448.314 352.313a16.944 16.944 0 0 1 -16.93 16.918h-434.14a16.944 16.944 0 0 1 -16.93-16.918v-270.547a10.318 10.318 0 0 1 10.311-10.3h13.161a4.89 4.89 0 0 1 4.7 3.468l12.058 39.211a28.783 28.783 0 0 0 27.653 20.421h332.234a28.783 28.783 0 0 0 27.653-20.421l12.059-39.212a4.89 4.89 0 0 1 4.7-3.469h13.161a10.318 10.318 0 0 1 10.31 10.302z"/></g></svg>